# xmcd
#
# Track frame offsets:
#	150
#	12599
#	23306
#	31684
#	39435
#	47428
#	60181
#	74399
#	84183
#	95617
#	100424
#	109166
#	132650
#
# Disc length: 1886 seconds
#
# Revision: 1
# Processed by: cddbd v1.5.2PL0 Copyright (c) Steve Scherf et al.
# Submitted via: audiograbber 1.83.01
#
DISCID=98075c0d
DTITLE=Antiseen - New Blood
DYEAR=2012
DGENRE=Rock
TTITLE0=Reconstruction 
TTITLE1=One Shot, One Kill 
TTITLE2=Black Eyed Susie 
TTITLE3=Chainsaw 
TTITLE4=Curses 
TTITLE5=The Witch 
TTITLE6=Sweet Blood Call 
TTITLE7=Exploding Barbed Wire Death Match 
TTITLE8=The Mysterious Green Mistinvader 1 Must Die 
TTITLE9=Invader 1 must die
TTITLE10=Kill The Scene 
TTITLE11=Pledge Allegiance To The Bomb - Death Train Coming (live) 
TTITLE12=The Crack Of Dawn 
EXTD=
EXTT0=
EXTT1=
EXTT2=
EXTT3=
EXTT4=
EXTT5=
EXTT6=
EXTT7=
EXTT8=
EXTT9=
EXTT10=
EXTT11=
EXTT12=
PLAYORDER=
